<svg id="visual" viewBox="0 0 1000 150" width="1000" height="150" xmlns="http://www.w3.org/2000/svg" xmlns:xlink="http://www.w3.org/1999/xlink" version="1.1"><rect x="0" y="0" width="1000" height="150" fill="#111827"></rect><path d="M0 80L12.8 82.3C25.7 84.7 51.3 89.3 77 89.5C102.7 89.7 128.3 85.3 154 85.8C179.7 86.3 205.3 91.7 231 97.2C256.7 102.7 282.3 108.3 308 105C333.7 101.7 359.3 89.3 385 93.8C410.7 98.3 436.3 119.7 461.8 121.8C487.3 124 512.7 107 538.2 100.7C563.7 94.3 589.3 98.7 615 102.2C640.7 105.7 666.3 108.3 692 109.7C717.7 111 743.3 111 769 105.7C794.7 100.3 820.3 89.7 846 94C871.7 98.3 897.3 117.7 923 118.2C948.7 118.7 974.3 100.3 987.2 91.2L1000 82L1000 0L987.2 0C974.3 0 948.7 0 923 0C897.3 0 871.7 0 846 0C820.3 0 794.7 0 769 0C743.3 0 717.7 0 692 0C666.3 0 640.7 0 615 0C589.3 0 563.7 0 538.2 0C512.7 0 487.3 0 461.8 0C436.3 0 410.7 0 385 0C359.3 0 333.7 0 308 0C282.3 0 256.7 0 231 0C205.3 0 179.7 0 154 0C128.3 0 102.7 0 77 0C51.3 0 25.7 0 12.8 0L0 0Z" fill="#111827"></path><path d="M0 98L12.8 100.8C25.7 103.7 51.3 109.3 77 103.5C102.7 97.7 128.3 80.3 154 82.3C179.7 84.3 205.3 105.7 231 106.5C256.7 107.3 282.3 87.7 308 78C333.7 68.3 359.3 68.7 385 78.3C410.7 88 436.3 107 461.8 112.7C487.3 118.3 512.7 110.7 538.2 109.2C563.7 107.7 589.3 112.3 615 114.2C640.7 116 666.3 115 692 117C717.7 119 743.3 124 769 121.7C794.7 119.3 820.3 109.7 846 105.3C871.7 101 897.3 102 923 104.8C948.7 107.7 974.3 112.3 987.2 114.7L1000 117L1000 0L987.2 0C974.3 0 948.7 0 923 0C897.3 0 871.7 0 846 0C820.3 0 794.7 0 769 0C743.3 0 717.7 0 692 0C666.3 0 640.7 0 615 0C589.3 0 563.7 0 538.2 0C512.7 0 487.3 0 461.8 0C436.3 0 410.7 0 385 0C359.3 0 333.7 0 308 0C282.3 0 256.7 0 231 0C205.3 0 179.7 0 154 0C128.3 0 102.7 0 77 0C51.3 0 25.7 0 12.8 0L0 0Z" fill="#121928"></path><path d="M0 97L12.8 92.8C25.7 88.7 51.3 80.3 77 76.3C102.7 72.3 128.3 72.7 154 79.5C179.7 86.3 205.3 99.7 231 102.2C256.7 104.7 282.3 96.3 308 93.3C333.7 90.3 359.3 92.7 385 95.2C410.7 97.7 436.3 100.3 461.8 104.2C487.3 108 512.7 113 538.2 107.8C563.7 102.7 589.3 87.3 615 87C640.7 86.7 666.3 101.3 692 106.8C717.7 112.3 743.3 108.7 769 106C794.7 103.3 820.3 101.7 846 102C871.7 102.3 897.3 104.7 923 101.5C948.7 98.3 974.3 89.7 987.2 85.3L1000 81L1000 0L987.2 0C974.3 0 948.7 0 923 0C897.3 0 871.7 0 846 0C820.3 0 794.7 0 769 0C743.3 0 717.7 0 692 0C666.3 0 640.7 0 615 0C589.3 0 563.7 0 538.2 0C512.7 0 487.3 0 461.8 0C436.3 0 410.7 0 385 0C359.3 0 333.7 0 308 0C282.3 0 256.7 0 231 0C205.3 0 179.7 0 154 0C128.3 0 102.7 0 77 0C51.3 0 25.7 0 12.8 0L0 0Z" fill="#141b2a"></path><path d="M0 58L12.8 64.8C25.7 71.7 51.3 85.3 77 94C102.7 102.7 128.3 106.3 154 103.2C179.7 100 205.3 90 231 80.7C256.7 71.3 282.3 62.7 308 63.3C333.7 64 359.3 74 385 77.5C410.7 81 436.3 78 461.8 80.7C487.3 83.3 512.7 91.7 538.2 90.2C563.7 88.7 589.3 77.3 615 78.2C640.7 79 666.3 92 692 95.8C717.7 99.7 743.3 94.3 769 85.3C794.7 76.3 820.3 63.7 846 61.2C871.7 58.7 897.3 66.3 923 72C948.7 77.7 974.3 81.3 987.2 83.2L1000 85L1000 0L987.2 0C974.3 0 948.7 0 923 0C897.3 0 871.7 0 846 0C820.3 0 794.7 0 769 0C743.3 0 717.7 0 692 0C666.3 0 640.7 0 615 0C589.3 0 563.7 0 538.2 0C512.7 0 487.3 0 461.8 0C436.3 0 410.7 0 385 0C359.3 0 333.7 0 308 0C282.3 0 256.7 0 231 0C205.3 0 179.7 0 154 0C128.3 0 102.7 0 77 0C51.3 0 25.7 0 12.8 0L0 0Z" fill="#151c2b"></path><path d="M0 82L12.8 80.3C25.7 78.7 51.3 75.3 77 74.3C102.7 73.3 128.3 74.7 154 78.2C179.7 81.7 205.3 87.3 231 82C256.7 76.7 282.3 60.3 308 56.8C333.7 53.3 359.3 62.7 385 71.7C410.7 80.7 436.3 89.3 461.8 88.2C487.3 87 512.7 76 538.2 70.8C563.7 65.7 589.3 66.3 615 70C640.7 73.7 666.3 80.3 692 78.3C717.7 76.3 743.3 65.7 769 59.3C794.7 53 820.3 51 846 54.3C871.7 57.7 897.3 66.3 923 73C948.7 79.7 974.3 84.3 987.2 86.7L1000 89L1000 0L987.2 0C974.3 0 948.7 0 923 0C897.3 0 871.7 0 846 0C820.3 0 794.7 0 769 0C743.3 0 717.7 0 692 0C666.3 0 640.7 0 615 0C589.3 0 563.7 0 538.2 0C512.7 0 487.3 0 461.8 0C436.3 0 410.7 0 385 0C359.3 0 333.7 0 308 0C282.3 0 256.7 0 231 0C205.3 0 179.7 0 154 0C128.3 0 102.7 0 77 0C51.3 0 25.7 0 12.8 0L0 0Z" fill="#161e2d"></path><path d="M0 85L12.8 78.7C25.7 72.3 51.3 59.7 77 56.2C102.7 52.7 128.3 58.3 154 61.7C179.7 65 205.3 66 231 66.5C256.7 67 282.3 67 308 68C333.7 69 359.3 71 385 68.7C410.7 66.3 436.3 59.7 461.8 54.8C487.3 50 512.7 47 538.2 49C563.7 51 589.3 58 615 59.3C640.7 60.7 666.3 56.3 692 51.7C717.7 47 743.3 42 769 46C794.7 50 820.3 63 846 63.8C871.7 64.7 897.3 53.3 923 47.2C948.7 41 974.3 40 987.2 39.5L1000 39L1000 0L987.2 0C974.3 0 948.7 0 923 0C897.3 0 871.7 0 846 0C820.3 0 794.7 0 769 0C743.3 0 717.7 0 692 0C666.3 0 640.7 0 615 0C589.3 0 563.7 0 538.2 0C512.7 0 487.3 0 461.8 0C436.3 0 410.7 0 385 0C359.3 0 333.7 0 308 0C282.3 0 256.7 0 231 0C205.3 0 179.7 0 154 0C128.3 0 102.7 0 77 0C51.3 0 25.7 0 12.8 0L0 0Z" fill="#171f2e"></path><path d="M0 66L12.8 63.8C25.7 61.7 51.3 57.3 77 54.3C102.7 51.3 128.3 49.7 154 49.5C179.7 49.3 205.3 50.7 231 50.7C256.7 50.7 282.3 49.3 308 49C333.7 48.7 359.3 49.3 385 50.7C410.7 52 436.3 54 461.8 53.2C487.3 52.3 512.7 48.7 538.2 46.8C563.7 45 589.3 45 615 48.3C640.7 51.7 666.3 58.3 692 63.5C717.7 68.7 743.3 72.3 769 68.3C794.7 64.3 820.3 52.7 846 52.3C871.7 52 897.3 63 923 62.3C948.7 61.7 974.3 49.3 987.2 43.2L1000 37L1000 0L987.2 0C974.3 0 948.7 0 923 0C897.3 0 871.7 0 846 0C820.3 0 794.7 0 769 0C743.3 0 717.7 0 692 0C666.3 0 640.7 0 615 0C589.3 0 563.7 0 538.2 0C512.7 0 487.3 0 461.8 0C436.3 0 410.7 0 385 0C359.3 0 333.7 0 308 0C282.3 0 256.7 0 231 0C205.3 0 179.7 0 154 0C128.3 0 102.7 0 77 0C51.3 0 25.7 0 12.8 0L0 0Z" fill="#192130"></path><path d="M0 29L12.8 34.7C25.7 40.3 51.3 51.7 77 51.7C102.7 51.7 128.3 40.3 154 39.2C179.7 38 205.3 47 231 50.7C256.7 54.3 282.3 52.7 308 48.2C333.7 43.7 359.3 36.3 385 34C410.7 31.7 436.3 34.3 461.8 37.7C487.3 41 512.7 45 538.2 43.7C563.7 42.3 589.3 35.7 615 35.7C640.7 35.7 666.3 42.3 692 43.2C717.7 44 743.3 39 769 35.7C794.7 32.3 820.3 30.7 846 33.5C871.7 36.3 897.3 43.7 923 46.5C948.7 49.3 974.3 47.7 987.2 46.8L1000 46L1000 0L987.2 0C974.3 0 948.7 0 923 0C897.3 0 871.7 0 846 0C820.3 0 794.7 0 769 0C743.3 0 717.7 0 692 0C666.3 0 640.7 0 615 0C589.3 0 563.7 0 538.2 0C512.7 0 487.3 0 461.8 0C436.3 0 410.7 0 385 0C359.3 0 333.7 0 308 0C282.3 0 256.7 0 231 0C205.3 0 179.7 0 154 0C128.3 0 102.7 0 77 0C51.3 0 25.7 0 12.8 0L0 0Z" fill="#1a2231"></path><path d="M0 33L12.8 36.5C25.7 40 51.3 47 77 47.3C102.7 47.7 128.3 41.3 154 37.8C179.7 34.3 205.3 33.7 231 32.7C256.7 31.7 282.3 30.3 308 32.8C333.7 35.3 359.3 41.7 385 40.5C410.7 39.3 436.3 30.7 461.8 30.8C487.3 31 512.7 40 538.2 43.5C563.7 47 589.3 45 615 40.8C640.7 36.7 666.3 30.3 692 30.3C717.7 30.3 743.3 36.7 769 38.8C794.7 41 820.3 39 846 37.2C871.7 35.3 897.3 33.7 923 36.3C948.7 39 974.3 46 987.2 49.5L1000 53L1000 0L987.2 0C974.3 0 948.7 0 923 0C897.3 0 871.7 0 846 0C820.3 0 794.7 0 769 0C743.3 0 717.7 0 692 0C666.3 0 640.7 0 615 0C589.3 0 563.7 0 538.2 0C512.7 0 487.3 0 461.8 0C436.3 0 410.7 0 385 0C359.3 0 333.7 0 308 0C282.3 0 256.7 0 231 0C205.3 0 179.7 0 154 0C128.3 0 102.7 0 77 0C51.3 0 25.7 0 12.8 0L0 0Z" fill="#1b2433"></path><path d="M0 39L12.8 38.2C25.7 37.3 51.3 35.7 77 34.2C102.7 32.7 128.3 31.3 154 28.8C179.7 26.3 205.3 22.7 231 23C256.7 23.3 282.3 27.7 308 27.3C333.7 27 359.3 22 385 19.2C410.7 16.3 436.3 15.7 461.8 15.2C487.3 14.7 512.7 14.3 538.2 14.7C563.7 15 589.3 16 615 19.8C640.7 23.7 666.3 30.3 692 32.2C717.7 34 743.3 31 769 27.7C794.7 24.3 820.3 20.7 846 22C871.7 23.3 897.3 29.7 923 32.5C948.7 35.3 974.3 34.7 987.2 34.3L1000 34L1000 0L987.2 0C974.3 0 948.7 0 923 0C897.3 0 871.7 0 846 0C820.3 0 794.7 0 769 0C743.3 0 717.7 0 692 0C666.3 0 640.7 0 615 0C589.3 0 563.7 0 538.2 0C512.7 0 487.3 0 461.8 0C436.3 0 410.7 0 385 0C359.3 0 333.7 0 308 0C282.3 0 256.7 0 231 0C205.3 0 179.7 0 154 0C128.3 0 102.7 0 77 0C51.3 0 25.7 0 12.8 0L0 0Z" fill="#1c2634"></path><path d="M0 17L12.8 18.7C25.7 20.3 51.3 23.7 77 25.7C102.7 27.7 128.3 28.3 154 28.8C179.7 29.3 205.3 29.7 231 30.2C256.7 30.7 282.3 31.3 308 27.7C333.7 24 359.3 16 385 13.8C410.7 11.7 436.3 15.3 461.8 19.3C487.3 23.3 512.7 27.7 538.2 28.5C563.7 29.3 589.3 26.7 615 25.2C640.7 23.7 666.3 23.3 692 23.8C717.7 24.3 743.3 25.7 769 24.2C794.7 22.7 820.3 18.3 846 16.8C871.7 15.3 897.3 16.7 923 18.2C948.7 19.7 974.3 21.3 987.2 22.2L1000 23L1000 0L987.2 0C974.3 0 948.7 0 923 0C897.3 0 871.7 0 846 0C820.3 0 794.7 0 769 0C743.3 0 717.7 0 692 0C666.3 0 640.7 0 615 0C589.3 0 563.7 0 538.2 0C512.7 0 487.3 0 461.8 0C436.3 0 410.7 0 385 0C359.3 0 333.7 0 308 0C282.3 0 256.7 0 231 0C205.3 0 179.7 0 154 0C128.3 0 102.7 0 77 0C51.3 0 25.7 0 12.8 0L0 0Z" fill="#1e2736"></path><path d="M0 17L12.8 15C25.7 13 51.3 9 77 9C102.7 9 128.3 13 154 13.3C179.7 13.7 205.3 10.3 231 11C256.7 11.7 282.3 16.3 308 15.8C333.7 15.3 359.3 9.7 385 9.2C410.7 8.7 436.3 13.3 461.8 15.7C487.3 18 512.7 18 538.2 18.5C563.7 19 589.3 20 615 17.5C640.7 15 666.3 9 692 6.7C717.7 4.3 743.3 5.7 769 7.2C794.7 8.7 820.3 10.3 846 10.3C871.7 10.3 897.3 8.7 923 9.7C948.7 10.7 974.3 14.3 987.2 16.2L1000 18L1000 0L987.2 0C974.3 0 948.7 0 923 0C897.3 0 871.7 0 846 0C820.3 0 794.7 0 769 0C743.3 0 717.7 0 692 0C666.3 0 640.7 0 615 0C589.3 0 563.7 0 538.2 0C512.7 0 487.3 0 461.8 0C436.3 0 410.7 0 385 0C359.3 0 333.7 0 308 0C282.3 0 256.7 0 231 0C205.3 0 179.7 0 154 0C128.3 0 102.7 0 77 0C51.3 0 25.7 0 12.8 0L0 0Z" fill="#1f2937"></path></svg>