<svg width="28" height="28" viewBox="0 0 28 28" fill="none" xmlns="http://www.w3.org/2000/svg">
<path d="M14 0C6.265 0 0 6.42766 0 14.3555C0 20.6994 4.011 26.0791 9.5725 27.9752C10.2725 28.1104 10.5292 27.6666 10.5292 27.2849C10.5292 26.944 10.5175 26.0408 10.5117 24.8445C6.61733 25.7106 5.796 22.9185 5.796 22.9185C5.159 21.2616 4.2385 20.819 4.2385 20.819C2.97033 19.929 4.3365 19.9469 4.3365 19.9469C5.74233 20.0474 6.48083 21.4255 6.48083 21.4255C7.72917 23.6207 9.758 22.9867 10.5583 22.6194C10.6843 21.6911 11.0448 21.0583 11.445 20.6994C8.33583 20.3405 5.068 19.1059 5.068 13.6054C5.068 12.0382 5.6105 10.7582 6.50883 9.75334C6.35133 9.39086 5.87883 7.93139 6.63133 5.95393C6.63133 5.95393 7.80383 5.56872 10.4813 7.42536C11.6013 7.10595 12.7913 6.94804 13.9813 6.94086C15.1713 6.94804 16.3613 7.10595 17.4813 7.42536C20.1413 5.56872 21.3138 5.95393 21.3138 5.95393C22.0663 7.93139 21.5938 9.39086 21.4538 9.75334C22.3463 10.7582 22.8888 12.0382 22.8888 13.6054C22.8888 19.1203 19.6163 20.3345 16.5013 20.6874C16.9913 21.1181 17.4463 21.9985 17.4463 23.3432C17.4463 25.2644 17.4288 26.8076 17.4288 27.2742C17.4288 27.651 17.6738 28.0996 18.3913 27.9561C23.9925 26.0731 28 20.6898 28 14.3555C28 6.42766 21.7315 0 14 0Z" fill="#B91C1C"/>
</svg>
